<?xml version="1.0" encoding="utf-8"?>
<!-- Generator: Adobe Illustrator 17.0.0, SVG Export Plug-In . SVG Version: 6.00 Build 0)  -->
<!DOCTYPE svg PUBLIC "-//W3C//DTD SVG 1.0//EN" "http://www.w3.org/TR/2001/REC-SVG-20010904/DTD/svg10.dtd">
<svg version="1.0" id="Livello_1" xmlns="http://www.w3.org/2000/svg" xmlns:xlink="http://www.w3.org/1999/xlink" x="0px" y="0px"
	 width="62.75px" height="64.17px" viewBox="0 0 62.75 64.17" enable-background="new 0 0 62.75 64.17" xml:space="preserve">
<g>
	
		<circle fill="none" stroke="#2B5134" stroke-width="0.126" stroke-linecap="round" stroke-linejoin="round" stroke-miterlimit="10" cx="53.671" cy="47.962" r="4.967"/>
	
		<circle fill="none" stroke="#2B5134" stroke-width="0.126" stroke-linecap="round" stroke-linejoin="round" stroke-miterlimit="10" cx="8.464" cy="47.962" r="5.657"/>
	<g>
		
			<path fill="#2B5134" stroke="#2B5134" stroke-width="0.126" stroke-linecap="round" stroke-linejoin="round" stroke-miterlimit="10" d="
			M23.64,8.779H21.8V7.722h-0.184V7.308l0.23-0.046V4.319c0,0,0.046-0.598,0.506-0.828c0.46-0.23,1.15-0.322,1.15-0.322l1.564-0.276
			c0,0,2.299-0.368,4.001-0.322c1.656,0,3.955,0.138,5.611,0.46l1.196,0.322l0.414,0.23l0.23,0.368l0.046,0.23v1.242
			c0,0,0.092,0.736,0.092,0.782c0,0.046,0.092,0.46,0.092,0.46c0,0.046,0.276,0.276,0.276,0.276l0.092,0.184l0.046,0.23L37.345,7.4
			v0.414h-0.184v1.012h-1.104v1.104h-1.564V8.825h-1.15l-0.046,2.529h-0.184l-0.092-2.483h-0.276l-0.092,2.529H32.47l-0.092-2.483
			h-0.322l-0.092,2.529H31.78l-0.092-2.529h-0.322l-0.092,2.483H31.09l-0.046-2.483h-0.322l-0.092,2.483h-0.184l-0.092-2.529h-0.276
			l-0.092,2.529h-0.184L29.71,8.871h-0.322l-0.092,2.529h-0.184l-0.092-2.529h-0.322l-0.092,2.529h-0.138l-0.092-2.529h-0.322
			l-0.092,2.529h-0.138l-0.092-2.529h-0.368l-0.092,2.483h-0.184l-0.092-2.483h-0.322l-0.092,2.529h-0.23l-0.046-2.529h-0.322
			l-0.092,2.529h-0.138l-0.092-2.529h-0.322l-0.092,2.529h-0.184l-0.138-2.529h-0.23l-0.092,2.529h-0.23l-0.092-2.529h-0.322
			l-0.046,2.483h-0.23L23.64,8.779z"/>
		
			<path fill="#2B5134" stroke="#2B5134" stroke-width="0.126" stroke-linecap="round" stroke-linejoin="round" stroke-miterlimit="10" d="
			M60.109,31.728l-0.092-0.184l-0.184-0.092v-4.599l-0.046-0.552l-0.276-0.69l-0.414-0.46l-0.552-0.414L58.039,24.6l-0.598-0.046
			h-1.794l-0.506-0.552l-0.276-0.23L54.59,23.68h-1.656h-0.184l-0.276,0.092l-0.736,0.69h-1.748l-0.506,0.046l-0.552,0.138
			l-0.368,0.23l-0.414,0.322l-0.322,0.414l-0.184,0.46l-0.092,0.506l0.046,4.691l-0.23,0.092l-0.092,0.092l-0.046,0.184l0.092,0.23
			l0.23,0.046v4.967L47.6,37.43l0.184,0.506l0.46,0.598l0.414,0.322l0.552,0.23l0.414,0.092l0.46,0.046v0.736h2.897v0.414
			l-0.092,0.046v0.46l-0.046,0.046v1.334l-0.092,0.092v0.322l0.138,0.046l-0.184,0.046l-1.058,0.368l-0.828,0.46l-0.736,0.644
			l-0.69,0.966l-0.276,0.69H48.52v-0.276l-0.092-0.23l0.046-0.138h0.276v-0.69l-0.092-0.046v-0.368l-0.138-0.046h-1.242h-0.322
			l-0.046,0.414h-0.828l-0.966-1.794h-4.461v0.368h4.231l0.966,1.84h0.92v0.322h0.368v0.184l-0.046,0.184v0.138h-0.736v0.23
			l-0.184-0.138h-0.506l-0.138,0.23v0.23l-0.184-0.046v-0.184l-0.184-0.138l-0.874,0.046l-0.138,0.138h-0.138l-0.138-0.138v-0.23
			l-0.046-0.092h-1.15L42.587,45.8v0.506l-0.092,0.092h-0.092l-0.046-0.092h-0.598l-0.092,0.046h-0.184v-0.23l-0.046-0.092
			L41.3,45.984l-0.782-0.046l-0.046-0.092L38.264,45.8l-0.046-0.092h-0.46l0.046,0.23h-0.644l-0.138,0.046l-0.046-0.092
			l-0.644-0.046l-0.138-0.138v-1.656h-0.736v1.38h-0.23l-0.046-1.38h-0.874v1.932l-0.23,0.046l-0.69,0.138h-0.736v-0.874
			l-0.184-0.046v-0.552l-0.092-0.276v-4.553l0.138-0.23v-0.644h0.368V38.12l0.782-1.426c0,0,0.874-2.115,1.058-2.851
			c0.184-0.782,0.414-1.748,0.414-1.748l-0.046-1.61l0.184-0.23v-2.253h-1.38l-0.046-1.426h0.69v-0.368l0.966-0.046l-0.046-0.276
			h2.529v-5.335h-2.483v-0.23h-0.92l-0.046-4.231l0.23-0.046v-3.955l-0.828-0.874v-0.138h-0.598H23.87h-0.598v0.138l-0.828,0.782V16
			h0.276l-0.046,4.047h-2.943v7.864v14.946h-1.932l-0.966,1.794h-0.828v-0.368l-0.138-0.092h-0.322l-0.138-0.092h-0.552
			l-0.138,0.092h-0.322l-0.138,0.046l0.046,0.414H14.12v0.69h0.276l0.046,0.138l-0.046,0.23v0.322h-0.46
			c-0.506-1.794-2.023-2.897-2.023-2.897c-1.472-1.012-2.851-1.012-2.851-1.012c-1.978-0.138-3.311,0.736-3.311,0.736
			c-1.334,0.782-2.023,2.115-2.023,2.115c-0.736,1.334-0.69,2.897-0.69,2.897c0,1.334,0.644,2.437,0.644,2.437
			c0.69,1.334,1.794,2.023,1.794,2.023c1.61,1.012,3.081,0.966,3.081,0.966h6.898v-0.138h0.322v0.184l-4.185,2.437
			c-0.506,0.368-0.552,0.92-0.552,0.92v1.564h35.319v-2.851v-0.69l-0.046-0.368l-0.184-0.46l-0.23-0.414l-0.184-0.276l0.368,0.046
			v-0.184h0.276v0.138l0.414,0.046v-0.184h0.23v0.184l0.414,0.046v-0.184h0.276v0.184l6.944,0.046l0.414-0.046l0.184-0.23
			l0.092-0.276v-0.322l0.598-0.23l0.782-0.414l0.598-0.46l0.552-0.644l0.368-0.506l0.276-0.598l0.23-0.736l0.092-0.598v-0.552
			l-0.046-0.69l-0.092-0.46l-0.276-0.874l-0.414-0.782l-0.598-0.736l-0.598-0.506v-0.184l-1.196-0.966v-0.184h0.276v-0.828h-0.184
			l-0.046-0.092H55.28l-0.046,0.138h-0.138l-0.184-0.046v-0.368l-0.092-0.092V40.65l-0.092-0.046v-0.46l2.943-0.046v-0.782
			l0.598-0.046l0.552-0.184l0.552-0.368l0.368-0.368l0.23-0.506l0.092-0.736v-5.105l0.092-0.046l0.138-0.092l0.046-0.184
			L60.109,31.728z M4.095,45.754c0.23,0,0.46,0.184,0.46,0.46s-0.184,0.46-0.46,0.46s-0.46-0.184-0.46-0.46
			S3.865,45.754,4.095,45.754z M4.141,50.169c-0.23,0-0.46-0.184-0.46-0.46c0-0.23,0.184-0.46,0.46-0.46s0.46,0.184,0.46,0.46
			C4.555,49.985,4.371,50.169,4.141,50.169z M10.211,43.179c0.23,0,0.46,0.184,0.46,0.46c0,0.276-0.184,0.46-0.46,0.46
			c-0.276,0-0.46-0.184-0.46-0.46C9.751,43.363,9.981,43.179,10.211,43.179z M6.67,43.179c0.23,0,0.46,0.184,0.46,0.46
			c0,0.276-0.184,0.46-0.46,0.46s-0.46-0.184-0.46-0.46C6.21,43.363,6.394,43.179,6.67,43.179z M6.67,52.745
			c-0.23,0-0.46-0.184-0.46-0.46c0-0.23,0.184-0.46,0.46-0.46s0.46,0.184,0.46,0.46C7.13,52.561,6.9,52.745,6.67,52.745z
			 M10.257,52.745c-0.23,0-0.46-0.184-0.46-0.46c0-0.276,0.184-0.46,0.46-0.46c0.276,0,0.46,0.184,0.46,0.46
			C10.717,52.561,10.487,52.745,10.257,52.745z M8.464,50.905c-1.61,0-2.943-1.334-2.943-2.943c0-1.61,1.334-2.943,2.943-2.943
			s2.943,1.334,2.943,2.943C11.407,49.571,10.073,50.905,8.464,50.905z M16.052,45.662v-0.276l0.966-0.046l1.012-1.84h1.656v2.621
			h-0.828l-0.092,0.046v0.138l-0.092,0.23l-0.276-0.046l-0.138-0.092l-0.874,0.046l-0.092-0.092l-0.092-0.092l-0.644,0.046
			l-0.046-0.092l-0.644,0.046v-0.092l-0.046-0.138l-0.092-0.322L16.052,45.662z M12.787,45.754c0.23,0,0.46,0.184,0.46,0.46
			s-0.184,0.46-0.46,0.46c-0.276,0-0.46-0.184-0.46-0.46S12.557,45.754,12.787,45.754z M13.246,49.755c0,0.23-0.184,0.46-0.46,0.46
			c-0.276,0-0.46-0.184-0.46-0.46s0.184-0.46,0.46-0.46C13.063,49.295,13.246,49.525,13.246,49.755z M17.937,56.746
			c-0.828,0-1.518-0.69-1.518-1.518s0.69-1.518,1.518-1.518s1.518,0.69,1.518,1.518C19.455,56.102,18.765,56.746,17.937,56.746z
			 M19.363,52.239l-7.266-0.046l0.644-0.69l0.644-0.92l0.368-1.012h1.932v0.138h0.782l0.046-0.138l0.092,0.046h0.552l0.184-0.184
			l1.334-0.046l0.138,0.092l-0.046,0.23l0.092,0.046h0.736l0.046,2.253L19.363,52.239z M24.744,44.697l-0.092,0.184v0.644
			l-0.184,0.046v0.874h-0.69l-0.598-0.092l0.046-10.117l0.414,0.874l0.644,1.196l0.046,0.966h0.368l0.046,0.69l0.092,0.23v4.507
			H24.744z M57.396,45.984c0.23,0,0.46,0.184,0.46,0.46c0,0.23-0.184,0.46-0.46,0.46c-0.276,0-0.46-0.184-0.46-0.46
			C56.936,46.168,57.166,45.984,57.396,45.984z M57.396,49.065c0.23,0,0.46,0.184,0.46,0.46c0,0.276-0.184,0.46-0.46,0.46
			c-0.276,0-0.46-0.184-0.46-0.46C56.936,49.249,57.166,49.065,57.396,49.065z M52.153,43.823c0.23,0,0.46,0.184,0.46,0.46
			c0,0.276-0.184,0.46-0.46,0.46s-0.46-0.184-0.46-0.46C51.693,44.007,51.923,43.823,52.153,43.823z M49.945,45.984
			c0.23,0,0.46,0.184,0.46,0.46c0,0.276-0.184,0.46-0.46,0.46c-0.276,0-0.46-0.184-0.46-0.46
			C49.486,46.168,49.715,45.984,49.945,45.984z M49.945,49.065c0.23,0,0.46,0.184,0.46,0.46c0,0.23-0.184,0.46-0.46,0.46
			c-0.276,0-0.46-0.184-0.46-0.46C49.532,49.249,49.715,49.065,49.945,49.065z M43.507,56.746c-0.828,0-1.518-0.69-1.518-1.518
			s0.69-1.518,1.518-1.518s1.518,0.69,1.518,1.518C44.979,56.056,44.335,56.746,43.507,56.746z M41.989,52.239l-0.23-0.23
			l-0.506-0.046H32.93l0.046-0.368h2.023v-1.38h0.276v1.38h0.736v-1.656l0.092-0.138l0.69-0.092v-0.184l0.184,0.138l0.598-0.046
			v0.276h0.46v-0.092h2.207v-0.138h0.828l0.138-0.092v-0.322l0.23,0.046l0.598-0.046l0.184-0.092l0.092,0.046l0.046,0.552
			l0.046,0.092l1.104,0.046l0.138-0.138v-0.23l0.138-0.092h0.138l0.092,0.092l0.874,0.046l0.23-0.368h0.092l0.092,0.23l0.092,0.138
			l0.414,0.046l0.23-0.046l0.092,0.092h0.69l0.046-0.092l1.978-0.046l0.184,0.322l0.552,0.966l0.552,0.598l0.92,0.69h-9.06V52.239z
			 M52.153,52.147c-0.23,0-0.46-0.184-0.46-0.46s0.184-0.46,0.46-0.46s0.46,0.184,0.46,0.46S52.383,52.147,52.153,52.147z
			 M55.234,52.147c-0.23,0-0.46-0.184-0.46-0.46c0-0.23,0.184-0.46,0.46-0.46c0.276,0,0.46,0.184,0.46,0.46
			S55.464,52.147,55.234,52.147z M55.188,43.823c0.23,0,0.46,0.184,0.46,0.46c0,0.276-0.184,0.46-0.46,0.46
			c-0.276,0-0.46-0.184-0.46-0.46C54.728,44.007,54.958,43.823,55.188,43.823z M56.016,47.916c0,1.288-1.058,2.345-2.345,2.345
			c-1.288,0-2.345-1.058-2.345-2.345c0-1.288,1.058-2.345,2.345-2.345C54.958,45.57,56.016,46.674,56.016,47.916z"/>
		
			<path fill="none" stroke="#FFFFFF" stroke-width="0.2704" stroke-linecap="round" stroke-linejoin="round" stroke-miterlimit="10" d="
			M10.027,56.608l6.806-3.679c0,0,0.552-0.414,1.656-0.414h25.018c0,0,2.575,0.046,3.265,3.127"/>
		
			<line fill="none" stroke="#FFFFFF" stroke-width="0.2704" stroke-linecap="round" stroke-linejoin="round" stroke-miterlimit="10" x1="20.973" y1="16.276" x2="35.459" y2="16.276"/>
		
			<path fill="none" stroke="#FFFFFF" stroke-width="0.2704" stroke-linecap="round" stroke-linejoin="round" stroke-miterlimit="10" d="
			M21.616,12.367"/>
		
			<line fill="none" stroke="#FFFFFF" stroke-width="0.2704" stroke-linecap="round" stroke-linejoin="round" stroke-miterlimit="10" x1="35.367" y1="12.413" x2="21.616" y2="12.367"/>
		
			<line fill="none" stroke="#FFFFFF" stroke-width="0.2704" stroke-linecap="round" stroke-linejoin="round" stroke-miterlimit="10" x1="35.459" y1="20.047" x2="35.459" y2="27.313"/>
		
			<polyline fill="none" stroke="#FFFFFF" stroke-width="0.2704" stroke-linecap="round" stroke-linejoin="round" stroke-miterlimit="10" points="
			18.903,20.369 32.884,20.369 32.884,32.004 30.538,32.004 19.087,32.004 		"/>
		
			<polyline fill="none" stroke="#FFFFFF" stroke-width="0.2704" stroke-linecap="round" stroke-linejoin="round" stroke-miterlimit="10" points="
			29.067,32.004 29.067,33.521 30.538,33.521 30.538,32.004 		"/>
		
			<polyline fill="none" stroke="#FFFFFF" stroke-width="0.2704" stroke-linecap="round" stroke-linejoin="round" stroke-miterlimit="10" points="
			27.181,32.004 27.181,33.567 25.25,33.567 25.25,31.958 		"/>
		
			<polyline fill="none" stroke="#FFFFFF" stroke-width="0.2704" stroke-linecap="round" stroke-linejoin="round" stroke-miterlimit="10" points="
			23.042,32.142 23.042,33.567 21.662,33.567 21.662,32.05 		"/>
		
			<line fill="none" stroke="#FFFFFF" stroke-width="0.2704" stroke-linecap="round" stroke-linejoin="round" stroke-miterlimit="10" x1="23.18" y1="52.469" x2="23.18" y2="32.05"/>
		
			<line fill="none" stroke="#FFFFFF" stroke-width="0.2704" stroke-linecap="round" stroke-linejoin="round" stroke-miterlimit="10" x1="20.145" y1="52.653" x2="20.145" y2="32.004"/>
		
			<line fill="none" stroke="#FFFFFF" stroke-width="0.2704" stroke-linecap="round" stroke-linejoin="round" stroke-miterlimit="10" x1="23.962" y1="38.35" x2="33.619" y2="38.35"/>
		
			<polyline fill="none" stroke="#FFFFFF" stroke-width="0.2704" stroke-linecap="round" stroke-linejoin="round" stroke-miterlimit="10" points="
			33.344,39.316 25.709,39.316 23.916,39.316 		"/>
		
			<path fill="none" stroke="#FFFFFF" stroke-width="0.2704" stroke-linecap="round" stroke-linejoin="round" stroke-miterlimit="10" d="
			M23.134,46.306c0,0,2.943,0.598,4.507,2.943c0,0,0.69,1.104,1.472-0.046c0,0,1.886-2.943,5.749-2.989"/>
		
			<path fill="none" stroke="#FFFFFF" stroke-width="0.2704" stroke-linecap="round" stroke-linejoin="round" stroke-miterlimit="10" d="
			M23.962,52.009v-1.104h9.014v1.058C33.022,51.963,23.962,52.101,23.962,52.009z"/>
		
			<path fill="none" stroke="#FFFFFF" stroke-width="0.2704" stroke-linecap="round" stroke-linejoin="round" stroke-miterlimit="10" d="
			M23.042,49.341c0,0,1.012,0.23,1.472,1.656l7.91-0.046c0,0,0.552-1.886,2.575-2.023"/>
		
			<line fill="none" stroke="#FFFFFF" stroke-width="0.2704" stroke-linecap="round" stroke-linejoin="round" stroke-miterlimit="10" x1="35.183" y1="43.869" x2="35.183" y2="51.779"/>
		
			<line fill="none" stroke="#FFFFFF" stroke-width="0.2704" stroke-linecap="round" stroke-linejoin="round" stroke-miterlimit="10" x1="36.103" y1="43.409" x2="36.103" y2="51.687"/>
		
			<path fill="none" stroke="#FFFFFF" stroke-width="0.2704" stroke-linecap="round" stroke-linejoin="round" stroke-miterlimit="10" d="
			M37.483,45.754"/>
		
			<line fill="none" stroke="#FFFFFF" stroke-width="0.092" stroke-miterlimit="2.414" x1="37.574" y1="50.859" x2="37.574" y2="45.11"/>
		
			<line fill="none" stroke="#FFFFFF" stroke-width="0.092" stroke-miterlimit="2.414" x1="18.673" y1="50.859" x2="18.673" y2="45.11"/>
		
			<line fill="none" stroke="#FFFFFF" stroke-width="0.092" stroke-miterlimit="2.414" x1="17.477" y1="50.859" x2="17.477" y2="45.11"/>
		
			<line fill="none" stroke="#FFFFFF" stroke-width="0.092" stroke-miterlimit="2.414" x1="16.558" y1="50.583" x2="16.558" y2="45.662"/>
		
			<line fill="none" stroke="#FFFFFF" stroke-width="0.092" stroke-miterlimit="2.414" x1="40.196" y1="45.386" x2="40.196" y2="50.629"/>
		
			<path fill="none" stroke="#FFFFFF" stroke-width="0.2704" stroke-linecap="round" stroke-linejoin="round" stroke-miterlimit="10" d="
			M42.403,45.34"/>
		
			<line fill="none" stroke="#FFFFFF" stroke-width="0.092" stroke-miterlimit="2.414" x1="42.403" y1="50.537" x2="42.403" y2="45.34"/>
		
			<line fill="none" stroke="#FFFFFF" stroke-width="0.092" stroke-miterlimit="2.414" x1="43.783" y1="45.662" x2="43.783" y2="50.537"/>
		
			<path fill="none" stroke="#FFFFFF" stroke-width="0.2704" stroke-linecap="round" stroke-linejoin="round" stroke-miterlimit="10" d="
			M46.22,45.846"/>
		
			<line fill="none" stroke="#FFFFFF" stroke-width="0.092" stroke-miterlimit="2.414" x1="46.22" y1="50.399" x2="46.22" y2="45.846"/>
		
			<path fill="none" stroke="#FFFFFF" stroke-width="0.2704" stroke-linecap="round" stroke-linejoin="round" stroke-miterlimit="10" d="
			M49.44,44.421c0,0-1.38,2.805-0.276,6.346"/>
		
			<path fill="none" stroke="#FFFFFF" stroke-width="0.2704" stroke-linecap="round" stroke-linejoin="round" stroke-miterlimit="10" d="
			M13.063,44.375c0,0,2.253,3.219,0,7.312"/>
		
			<line fill="none" stroke="#FFFFFF" stroke-width="0.2704" stroke-linecap="round" stroke-linejoin="round" stroke-miterlimit="10" x1="46.864" y1="31.452" x2="60.661" y2="31.452"/>
		
			<line fill="none" stroke="#FFFFFF" stroke-width="0.2704" stroke-linecap="round" stroke-linejoin="round" stroke-miterlimit="10" x1="60.615" y1="32.234" x2="46.45" y2="32.234"/>
		
			<line fill="none" stroke="#FFFFFF" stroke-width="0.2704" stroke-linecap="round" stroke-linejoin="round" stroke-miterlimit="10" x1="46.496" y1="26.715" x2="60.799" y2="26.715"/>
		
			<line fill="none" stroke="#FFFFFF" stroke-width="0.2704" stroke-linecap="round" stroke-linejoin="round" stroke-miterlimit="10" x1="60.523" y1="37.016" x2="44.657" y2="37.016"/>
		
			<line fill="none" stroke="#FFFFFF" stroke-width="0.092" stroke-miterlimit="2.414" x1="48.888" y1="24.554" x2="59.419" y2="24.554"/>
		
			<line fill="none" stroke="#FFFFFF" stroke-width="0.2704" stroke-linecap="round" stroke-linejoin="round" stroke-miterlimit="10" x1="21.203" y1="7.63" x2="37.988" y2="7.63"/>
		
			<polyline fill="none" stroke="#FFFFFF" stroke-width="0.2704" stroke-linecap="round" stroke-linejoin="round" stroke-miterlimit="10" points="
			21.432,7.124 34.539,7.124 38.034,7.124 		"/>
		
			<path fill="none" stroke="#FFFFFF" stroke-width="0.2704" stroke-linecap="round" stroke-linejoin="round" stroke-miterlimit="10" d="
			M36.103,4.089c-0.92-0.276-1.656-0.046-1.656-0.046s-5.105-1.288-9.98-0.092c-0.092,0.046-0.184,0.046-0.276,0.092
			c0,0-1.334,0-1.978,0.414"/>
		
			<line fill="none" stroke="#FFFFFF" stroke-width="0.2704" stroke-linecap="round" stroke-linejoin="round" stroke-miterlimit="10" x1="24.468" y1="7.17" x2="24.468" y2="3.859"/>
		
			<line fill="none" stroke="#FFFFFF" stroke-width="0.2704" stroke-linecap="round" stroke-linejoin="round" stroke-miterlimit="10" x1="34.447" y1="4.043" x2="34.447" y2="7.124"/>
		
			<line fill="none" stroke="#FFFFFF" stroke-width="0.2704" stroke-linecap="round" stroke-linejoin="round" stroke-miterlimit="10" x1="23.226" y1="16.322" x2="23.226" y2="20.369"/>
		
			<line fill="none" stroke="#FFFFFF" stroke-width="0.2704" stroke-linecap="round" stroke-linejoin="round" stroke-miterlimit="10" x1="24.1" y1="16.322" x2="24.1" y2="20.369"/>
		
			<line fill="none" stroke="#FFFFFF" stroke-width="0.2704" stroke-linecap="round" stroke-linejoin="round" stroke-miterlimit="10" x1="24.928" y1="16.322" x2="24.928" y2="20.369"/>
		
			<line fill="none" stroke="#FFFFFF" stroke-width="0.2704" stroke-linecap="round" stroke-linejoin="round" stroke-miterlimit="10" x1="25.801" y1="16.322" x2="25.801" y2="20.369"/>
		
			<line fill="none" stroke="#FFFFFF" stroke-width="0.2704" stroke-linecap="round" stroke-linejoin="round" stroke-miterlimit="10" x1="26.675" y1="16.322" x2="26.675" y2="20.369"/>
		
			<line fill="none" stroke="#FFFFFF" stroke-width="0.2704" stroke-linecap="round" stroke-linejoin="round" stroke-miterlimit="10" x1="27.549" y1="16.322" x2="27.549" y2="20.369"/>
		
			<line fill="none" stroke="#FFFFFF" stroke-width="0.2704" stroke-linecap="round" stroke-linejoin="round" stroke-miterlimit="10" x1="28.423" y1="16.322" x2="28.423" y2="20.369"/>
		
			<line fill="none" stroke="#FFFFFF" stroke-width="0.2704" stroke-linecap="round" stroke-linejoin="round" stroke-miterlimit="10" x1="29.251" y1="16.322" x2="29.251" y2="20.369"/>
		
			<line fill="none" stroke="#FFFFFF" stroke-width="0.2704" stroke-linecap="round" stroke-linejoin="round" stroke-miterlimit="10" x1="30.124" y1="16.322" x2="30.124" y2="20.369"/>
		
			<line fill="none" stroke="#FFFFFF" stroke-width="0.2704" stroke-linecap="round" stroke-linejoin="round" stroke-miterlimit="10" x1="30.998" y1="16.322" x2="30.998" y2="20.369"/>
		
			<line fill="none" stroke="#FFFFFF" stroke-width="0.2704" stroke-linecap="round" stroke-linejoin="round" stroke-miterlimit="10" x1="31.826" y1="16.322" x2="31.826" y2="20.369"/>
		
			<line fill="none" stroke="#FFFFFF" stroke-width="0.2704" stroke-linecap="round" stroke-linejoin="round" stroke-miterlimit="10" x1="32.7" y1="16.322" x2="32.7" y2="20.369"/>
		
			<line fill="none" stroke="#FFFFFF" stroke-width="0.2704" stroke-linecap="round" stroke-linejoin="round" stroke-miterlimit="10" x1="33.573" y1="16.322" x2="33.573" y2="20.369"/>
		
			<line fill="none" stroke="#FFFFFF" stroke-width="0.092" stroke-miterlimit="2.414" x1="48.75" y1="39.592" x2="58.683" y2="39.592"/>
	</g>
</g>
</svg>
